# xmcd
#
# Track frame offsets:
#  300
#  24180
#  45567
#  68956
#  88077
#  113612
#  129996
#  151975
#  176178
#  201274
#  226864
#  267866
#  283849
#
# Disc length: 4128 seconds
#
# Revision: 0
# Processed by: cddbd v1.5.2PL0 Copyright (c) Steve Scherf et al.
# Submitted via: Collectorz.com_Music_Collector 6.11
#
DISCID=af101c0d
DTITLE=LUCINDA WILLIAMS - WEST (2007)
DYEAR=2007
DGENRE=Country
TTITLE0=ARE YOU ALRIGHT?
TTITLE1=MAMA YOU SWEET
TTITLE2=LEARNING HOW TO LIVE
TTITLE3=FANCY FUNERAL
TTITLE4=UNSUFFER ME
TTITLE5=EVERYTHING HAS CHANGED
TTITLE6=COME ON
TTITLE7=WHERE IS MY LOVE?
TTITLE8=RESCUE
TTITLE9=WHAT IF
TTITLE10=WRAP MY HEAD AROUND THAT
TTITLE11=WORDS
TTITLE12=WEST
EXTD=
EXTT0=
EXTT1=
EXTT2=
EXTT3=
EXTT4=
EXTT5=
EXTT6=
EXTT7=
EXTT8=
EXTT9=
EXTT10=
EXTT11=
EXTT12=
PLAYORDER=
